<svg xmlns="http://www.w3.org/2000/svg" width="242" height="50" fill="none" class="icon icon-lick"><path stroke="currentColor" stroke-linejoin="bevel" stroke-width=".728" d="M0 9.577h241.315M0 16.19h241.315M0 22.804h241.315M0 29.417h241.315M0 36.03h241.315"/><path stroke="currentColor" stroke-linejoin="bevel" stroke-width="1.189" d="M234.635 9.213v27.18"/><path stroke="currentColor" stroke-linejoin="bevel" stroke-width="3.637" d="M239.496 9.213v27.18"/><path stroke="currentColor" stroke-linejoin="bevel" stroke-width="1.189" d="M172.462 9.213v27.18"/><path fill="currentColor" fill-rule="evenodd" stroke="currentColor" stroke-linecap="round" stroke-linejoin="round" stroke-width=".331" d="M158.072 44.256c5.507 4.455 22.03 4.455 27.537 0-5.507 6.57-22.03 6.57-27.537 0" clip-rule="evenodd"/><path stroke="currentColor" stroke-linejoin="bevel" stroke-width="1.059" d="M135.736 42.644h12.958"/><path stroke="currentColor" stroke-linejoin="bevel" stroke-width=".661" d="M107.607 28.359V9.589M161.616 38.279V21.184M146.185 41.586V22.77M123.038 34.972V12.883M76.745 34.972V10.675M92.176 31.665V10.132M61.314 38.279v-27.06"/><path fill="currentColor" d="M83.91 33.836c0 1.136.818 2.405 2.963 2.405 2.749 0 5.634-2.248 5.634-4.575 0-1.563-1.323-2.435-2.964-2.435-2.567 0-5.634 2.17-5.634 4.605M68.478 37.142c0 1.137.819 2.406 2.964 2.406 2.749 0 5.634-2.249 5.634-4.576 0-1.562-1.323-2.434-2.964-2.434-2.567 0-5.634 2.17-5.634 4.604M99.34 30.529c0 1.137.819 2.405 2.964 2.405 2.749 0 5.634-2.248 5.634-4.575 0-1.563-1.323-2.435-2.964-2.435-2.566 0-5.633 2.17-5.633 4.605M114.772 37.142c0 1.137.818 2.406 2.963 2.406 2.749 0 5.634-2.249 5.634-4.576 0-1.562-1.323-2.434-2.964-2.434-2.566 0-5.633 2.17-5.633 4.604M53.047 40.449c0 1.136.819 2.405 2.964 2.405 2.748 0 5.633-2.248 5.633-4.575 0-1.563-1.322-2.435-2.963-2.435-2.567 0-5.634 2.17-5.634 4.605M137.918 43.755c0 1.137.819 2.406 2.964 2.406 2.748 0 5.634-2.248 5.634-4.576 0-1.562-1.323-2.434-2.964-2.434-2.567 0-5.634 2.17-5.634 4.604M153.35 40.449c0 1.136.818 2.405 2.963 2.405 2.749 0 5.634-2.248 5.634-4.575 0-1.563-1.323-2.435-2.964-2.435-2.566 0-5.633 2.17-5.633 4.605M186.482 42.036c-.74 0-1.244-.21-1.588-.872-.343-.661-.818-2.356-.847-3.071-.054-.715.211-1.137.847-1.348.319-.107.74-.16 1.137-.16.74 0 1.219.16 1.587.875.372.711.848 2.406.848 3.067 0 1.298-.901 1.509-1.984 1.509m-.211-6.295c-3.65 0-4.948 1.852-4.948 3.571s1.298 3.571 4.948 3.571 4.919-1.851 4.919-3.57c0-1.72-1.269-3.572-4.919-3.572M16.07 34.865c-.529.107-1.029.16-1.533.16-3.782 0-7.01-2.645-7.01-6.641 0-3.224 2.273-6.11 4.604-8.122.447-.397.872-.765 1.27-1.162.235 1.426.42 2.67.607 3.757-2.41.715-4.047 3.253-4.047 5.742 0 1.851 1.455 4.39 3.572 4.39.21 0 .45-.108.45-.344 0-.24-.264-.372-.583-.583-1.033-.636-1.616-1.322-1.616-2.62 0-1.612 1.19-2.91 2.753-3.278zM13.743 7.67c.24-1.058 1.455-3.835 2.832-3.835.396 0 1.029 1.293 1.029 3.12 0 2.753-2.034 4.816-3.86 6.614-.158-1.058-.29-2.088-.29-3.2 0-.98.079-1.88.29-2.699m6.085 22.3c0 1.88-.77 3.81-2.646 4.58a952 952 0 0 1-1.455-8.548c2.381 0 4.1 1.616 4.1 3.968M8.188 42.987c0 1.748 1.348 4.05 4.919 4.05 1.244 0 2.331-.318 3.282-.9 1.43-1.005 1.798-2.754 1.798-4.42 0-1.029-.157-2.219-.422-3.728-.079-.529-.24-1.322-.397-2.356 2.592-.847 4.522-3.546 4.522-6.27 0-3.993-2.831-6.692-6.692-6.692-.264-1.587-.529-3.15-.769-4.629 2.807-2.939 4.737-6.246 4.737-10.45 0-2.409-.74-4.364-1.165-5.319C17.368.926 16.599 0 16.124 0c-.186 0-1.004.318-1.876 1.348-1.695 2.012-2.17 5.398-2.17 7.617 0 1.43.132 2.728.582 5.692-.029.025-1.405 1.426-1.959 1.876-2.41 2.249-5.741 5.448-5.741 10.743 0 4.943 4.311 8.833 9.234 8.833.765 0 1.48-.079 2.087-.186.504 2.542.794 4.393.794 5.795 0 2.752-1.401 4.207-4.072 4.207-.636 0-1.19-.132-1.244-.132-.024-.029-.078-.054-.078-.078 0-.054.054-.083.132-.108 1.244-.186 2.484-1.244 2.484-2.934 0-1.43-1.083-2.94-3.067-2.94-1.852 0-3.042 1.51-3.042 3.254M33.633 19.55v1.956h-2.195a.38.38 0 0 0-.372.372v.504c0 .21.186.368.372.368h8.015a.36.36 0 0 0 .372-.368v-.504a.363.363 0 0 0-.372-.372h-2.381V19.55h2.38c.216 0 .373-.186.373-.397v-.504a.375.375 0 0 0-.372-.368h-2.381v-4.208c0-.157-.079-.29-.182-.343l-.318-.161c-.054-.025-.079-.025-.133-.025-.107 0-.21 0-.293.079l-2.406 2.194a.4.4 0 0 0-.107.294v2.17h-3.067s2.964-3.175 6.084-7.357a.57.57 0 0 0 .133-.368.45.45 0 0 0-.079-.265l-.583-.583c-.078-.053-.157-.107-.264-.107h-3.944c-.186 0-.318.161-.343.318 0 0-.132 1.96-.818 4.1-.69 2.146-1.484 3.468-2.17 4.444 0 0-.079.132-.079.293 0 .054 0 .103.025.157.079.186.265.476.265.476s.053.16.29.16zM33.633 32.777v1.955h-2.195a.38.38 0 0 0-.372.372v.505c0 .21.186.367.372.367h8.015a.36.36 0 0 0 .372-.367v-.505a.363.363 0 0 0-.372-.372h-2.381v-1.955h2.38c.216 0 .373-.186.373-.397v-.504a.375.375 0 0 0-.372-.368h-2.381v-4.207c0-.157-.079-.29-.182-.343l-.318-.162c-.054-.024-.079-.024-.133-.024-.107 0-.21 0-.293.078l-2.406 2.195a.4.4 0 0 0-.107.293v2.17h-3.067s2.964-3.174 6.084-7.357a.57.57 0 0 0 .133-.368.45.45 0 0 0-.079-.264l-.583-.583c-.078-.054-.157-.108-.264-.108h-3.944c-.186 0-.318.162-.343.319 0 0-.132 1.959-.818 4.1-.69 2.145-1.484 3.468-2.17 4.443 0 0-.079.133-.079.294 0 .053 0 .103.025.157.079.186.265.475.265.475s.053.161.29.161z"/><path fill="currentColor" fill-rule="evenodd" d="m145.854 21.142 16.093-1.654v3.325l-16.093 1.653zM60.983 9.576l46.955-1.653v3.308l-46.955 1.654z" clip-rule="evenodd"/></svg>